<?xml version="1.0" encoding="UTF-8"?>
<svg version="1.1" viewBox="0 0 2048 732" width="1280" height="1280" xmlns="http://www.w3.org/2000/svg">
<path transform="translate(1431,45)" d="m0 0h14l26 2 24 4 25 7 21 8 16 8 16 9 17 13 12 11 10 11 9 13 9 17 6 18 3 17v15l-3 12-6 10-4 5-9 6-11 4h-20l-11-4-9-7-7-10-12-21-11-18-9-12-11-12-12-9-15-8-15-5-18-3h-35l-20 4-16 6-11 6-11 8-10 9-9 10-10 15-8 16-7 18-7 28-4 33v44l3 27 5 25 7 21 8 17 8 12 11 13 14 11 19 10 20 6 12 2 11 1h20l20-3 16-5 17-8 11-8 10-9 10-11 11-18 9-19 8-19 8-11 9-8 8-4 8-2h13l12 4 11 8 7 9 5 10 2 7v19l-3 19-5 16-7 16-8 14-10 13-9 10-10 10-14 11-19 12-16 8-19 8-24 7-21 4-17 2h-44l-31-4-25-6-18-6-20-9-18-11-14-11-15-14-12-14-12-17-12-22-12-27-10-30-6-28-3-24-1-16v-25l2-28 4-26 6-25 7-21 9-21 10-18 10-15 11-14 12-13 10-9 13-10 17-11 16-8 19-8 20-6 25-5 16-2z" fill="#05A1D2"/>
<path transform="translate(427,179)" d="m0 0 16 2 12 6 9 10 5 11 3 13 1 19 10-11 7-8 8-8 14-11 13-8 15-7 13-4 19-3h31l21 3 24 8 19 10 16 12 17 17 11 15 9 16 7 15 8 24 5 25 2 16 1 25-1 22-4 27-5 20-5 15-9 20-9 15-9 12-12 13-13 11-13 8-16 8-19 6-15 3-22 2-23-1-18-3-21-7-17-9-13-10-13-12-11-14-2-2-1 143-2 16-4 12-6 9-7 7-11 4-4 1h-20l-10-3-8-6-6-7-5-14-2-14-1-26v-309l1-83 3-14 6-12 8-8 10-5zm126 68-15 3-12 5-10 6-10 9-8 9-8 14-6 14-5 19-3 28v18l3 26 5 19 7 16 7 12 10 12 12 9 14 7 15 4 9 1h14l15-3 12-5 10-6 10-9 7-8 8-14 6-14 5-20 3-24v-24l-3-25-5-19-7-17-10-16-12-12-13-8-14-5-10-2z" fill="#05A1D2"/>
<path transform="translate(946,180)" d="m0 0h50l24 2 22 4 20 6 16 8 14 10 8 8 10 14 7 15 6 21 3 20 1 13 1 123 2 19 10 49 2 10v16l-6 12-4 5-9 6-11 4-4 1h-16l-10-4-10-8-9-9-11-15-7-11-4 1-18 13-15 9-16 8-15 6-17 5-22 4-10 1h-34l-25-5-20-8-15-9-13-12-8-9-8-14-5-12-4-18v-27l4-18 7-16 7-10 9-10 7-7 15-10 19-9 29-8 131-31 14-3-2-23-4-15-6-11-7-7-14-7-11-3-8-1h-32l-18 3-15 5-12 7-12 11-10 14-10 17-7 8-13 4h-14l-13-4-9-6-7-9-4-10v-19l4-15 8-16 8-10 8-8 14-10 16-8 19-7 26-6 21-3zm89 187-42 11-46 11-27 6-12 5-12 9-8 11-4 12v13l4 12 7 10 5 5 7 6 14 7 12 3h25l18-3 17-6 14-9 8-7 9-13 7-15 5-20 2-19 1-29z" fill="#05A1D2"/>
<path transform="translate(1730,180)" d="m0 0h16l13 4 10 8 6 8 7 14 16 47 16 48 14 41 14 42 14 41 5 14 2-3 9-26 21-57 18-50 15-41 12-34 10-30 6-11 8-9 10-5 5-1h18l10 3 9 6 6 8 4 10 1 5v13l-6 23-13 36-15 39-19 50-21 55-19 50-18 47-16 42-13 32-12 25-9 14-8 10-12 12-18 11-17 6-19 4-21 2h-24l-22-2-16-4-12-6-7-8-4-8-2-8v-8l3-10 5-8 8-6 11-4 9-1 27 3h17l11-4 11-7 7-8 8-14 9-20 8-19 1-5-40-99-15-37-17-42-36-89-13-32-3-14 2-14 6-12 9-9 11-6z" fill="#05A1D2"/>
<path transform="translate(140,179)" d="m0 0h23l29 3 22 5 20 7 21 11 13 10 10 10 9 14 5 11 3 12-1 9-4 9-8 9-11 6-13 3-11-1-11-4-11-8-19-19-7-8-11-10-14-8-17-4h-16l-16 2-13 4-10 6-5 4-6 10-2 10 1 10 4 10 5 6 10 7 16 7 22 6 43 10 45 14 25 10 16 9 15 12 8 10 8 16 4 15v32l-4 20-6 15-6 11-10 13-11 10-14 9-17 8-15 5-22 5-23 3-14 1h-35l-27-3-24-5-21-7-17-8-13-9-12-11-9-12-7-15-4-16v-16l7-14 7-7 12-6 4-1h16l11 3 9 7 7 10 9 15 9 12 10 9 14 8 16 5 14 2h29l16-3 13-5 11-7 6-8 3-11v-8l-3-12-6-10-9-8-16-8-19-6-43-11-40-12-21-8-19-10-10-8-8-7-10-13-7-14-4-13-3-16v-19l3-14 6-15 8-12 9-10 9-8 19-12 16-7 19-6 25-5z" fill="#05A1D2"/>
</svg>
